<mxfile host="app.diagrams.net" modified="2024-04-28T19:06:38.486Z" agent="Mozilla/5.0 (Windows NT 10.0; Win64; x64) AppleWebKit/537.36 (KHTML, like Gecko) Chrome/124.0.0.0 Safari/537.36" etag="15teFu7p_VKYeBigwSsy" version="24.3.1" type="device">
  <diagram name="Page-1" id="QuhwVj971c-NpRBRHxe9">
    <mxGraphModel dx="1050" dy="565" grid="1" gridSize="10" guides="1" tooltips="1" connect="1" arrows="1" fold="1" page="1" pageScale="1" pageWidth="850" pageHeight="1100" math="0" shadow="0">
      <root>
        <mxCell id="0" />
        <mxCell id="1" parent="0" />
        <mxCell id="6UBvbnQ5x66d-xGpxlXS-1" value="" style="shape=umlLifeline;perimeter=lifelinePerimeter;whiteSpace=wrap;html=1;container=1;dropTarget=0;collapsible=0;recursiveResize=0;outlineConnect=0;portConstraint=eastwest;newEdgeStyle={&quot;curved&quot;:0,&quot;rounded&quot;:0};participant=umlActor;" vertex="1" parent="1">
          <mxGeometry x="240" y="150" width="20" height="390" as="geometry" />
        </mxCell>
        <mxCell id="6UBvbnQ5x66d-xGpxlXS-5" value="" style="html=1;points=[[0,0,0,0,5],[0,1,0,0,-5],[1,0,0,0,5],[1,1,0,0,-5]];perimeter=orthogonalPerimeter;outlineConnect=0;targetShapes=umlLifeline;portConstraint=eastwest;newEdgeStyle={&quot;curved&quot;:0,&quot;rounded&quot;:0};" vertex="1" parent="6UBvbnQ5x66d-xGpxlXS-1">
          <mxGeometry y="80" width="20" height="250" as="geometry" />
        </mxCell>
        <mxCell id="6UBvbnQ5x66d-xGpxlXS-2" value="store website" style="shape=umlLifeline;perimeter=lifelinePerimeter;whiteSpace=wrap;html=1;container=1;dropTarget=0;collapsible=0;recursiveResize=0;outlineConnect=0;portConstraint=eastwest;newEdgeStyle={&quot;curved&quot;:0,&quot;rounded&quot;:0};" vertex="1" parent="1">
          <mxGeometry x="380" y="160" width="100" height="360" as="geometry" />
        </mxCell>
        <mxCell id="6UBvbnQ5x66d-xGpxlXS-3" value="check order&amp;nbsp;&lt;div&gt;status&lt;/div&gt;" style="shape=umlLifeline;perimeter=lifelinePerimeter;whiteSpace=wrap;html=1;container=1;dropTarget=0;collapsible=0;recursiveResize=0;outlineConnect=0;portConstraint=eastwest;newEdgeStyle={&quot;curved&quot;:0,&quot;rounded&quot;:0};" vertex="1" parent="1">
          <mxGeometry x="560" y="160" width="100" height="370" as="geometry" />
        </mxCell>
        <mxCell id="6UBvbnQ5x66d-xGpxlXS-9" value="" style="html=1;points=[[0,0,0,0,5],[0,1,0,0,-5],[1,0,0,0,5],[1,1,0,0,-5]];perimeter=orthogonalPerimeter;outlineConnect=0;targetShapes=umlLifeline;portConstraint=eastwest;newEdgeStyle={&quot;curved&quot;:0,&quot;rounded&quot;:0};" vertex="1" parent="6UBvbnQ5x66d-xGpxlXS-3">
          <mxGeometry x="40" y="130" width="20" height="120" as="geometry" />
        </mxCell>
        <mxCell id="6UBvbnQ5x66d-xGpxlXS-6" value="" style="html=1;points=[[0,0,0,0,5],[0,1,0,0,-5],[1,0,0,0,5],[1,1,0,0,-5]];perimeter=orthogonalPerimeter;outlineConnect=0;targetShapes=umlLifeline;portConstraint=eastwest;newEdgeStyle={&quot;curved&quot;:0,&quot;rounded&quot;:0};" vertex="1" parent="1">
          <mxGeometry x="410" y="240" width="30" height="200" as="geometry" />
        </mxCell>
        <mxCell id="6UBvbnQ5x66d-xGpxlXS-15" value="" style="html=1;verticalAlign=bottom;endArrow=block;curved=0;rounded=0;" edge="1" parent="1">
          <mxGeometry width="80" relative="1" as="geometry">
            <mxPoint x="769.5" y="500" as="sourcePoint" />
            <mxPoint x="769.5" y="500" as="targetPoint" />
          </mxGeometry>
        </mxCell>
        <mxCell id="6UBvbnQ5x66d-xGpxlXS-22" value="store database" style="shape=umlLifeline;perimeter=lifelinePerimeter;whiteSpace=wrap;html=1;container=1;dropTarget=0;collapsible=0;recursiveResize=0;outlineConnect=0;portConstraint=eastwest;newEdgeStyle={&quot;curved&quot;:0,&quot;rounded&quot;:0};" vertex="1" parent="1">
          <mxGeometry x="710" y="160" width="100" height="370" as="geometry" />
        </mxCell>
        <mxCell id="6UBvbnQ5x66d-xGpxlXS-23" value="" style="html=1;points=[[0,0,0,0,5],[0,1,0,0,-5],[1,0,0,0,5],[1,1,0,0,-5]];perimeter=orthogonalPerimeter;outlineConnect=0;targetShapes=umlLifeline;portConstraint=eastwest;newEdgeStyle={&quot;curved&quot;:0,&quot;rounded&quot;:0};" vertex="1" parent="6UBvbnQ5x66d-xGpxlXS-22">
          <mxGeometry x="40" y="155" width="20" height="80" as="geometry" />
        </mxCell>
        <mxCell id="6UBvbnQ5x66d-xGpxlXS-28" value="customer" style="text;html=1;align=center;verticalAlign=middle;resizable=0;points=[];autosize=1;strokeColor=none;fillColor=none;" vertex="1" parent="1">
          <mxGeometry x="215" y="190" width="70" height="30" as="geometry" />
        </mxCell>
        <mxCell id="6UBvbnQ5x66d-xGpxlXS-29" value="enter order number" style="html=1;verticalAlign=bottom;endArrow=block;curved=0;rounded=0;" edge="1" parent="1" target="6UBvbnQ5x66d-xGpxlXS-6">
          <mxGeometry width="80" relative="1" as="geometry">
            <mxPoint x="260" y="270" as="sourcePoint" />
            <mxPoint x="340" y="270" as="targetPoint" />
          </mxGeometry>
        </mxCell>
        <mxCell id="6UBvbnQ5x66d-xGpxlXS-30" value="checkorder number" style="html=1;verticalAlign=bottom;endArrow=block;curved=0;rounded=0;" edge="1" parent="1" target="6UBvbnQ5x66d-xGpxlXS-9">
          <mxGeometry width="80" relative="1" as="geometry">
            <mxPoint x="430" y="290" as="sourcePoint" />
            <mxPoint x="510" y="290" as="targetPoint" />
          </mxGeometry>
        </mxCell>
        <mxCell id="6UBvbnQ5x66d-xGpxlXS-31" value="checkk order number" style="html=1;verticalAlign=bottom;endArrow=block;curved=0;rounded=0;" edge="1" parent="1" target="6UBvbnQ5x66d-xGpxlXS-23">
          <mxGeometry width="80" relative="1" as="geometry">
            <mxPoint x="620" y="329.5" as="sourcePoint" />
            <mxPoint x="700" y="329.5" as="targetPoint" />
          </mxGeometry>
        </mxCell>
        <mxCell id="6UBvbnQ5x66d-xGpxlXS-32" value="return order status" style="html=1;verticalAlign=bottom;endArrow=open;dashed=1;endSize=8;curved=0;rounded=0;" edge="1" parent="1" source="6UBvbnQ5x66d-xGpxlXS-23">
          <mxGeometry relative="1" as="geometry">
            <mxPoint x="700" y="370" as="sourcePoint" />
            <mxPoint x="620" y="370" as="targetPoint" />
          </mxGeometry>
        </mxCell>
        <mxCell id="6UBvbnQ5x66d-xGpxlXS-33" value="" style="html=1;verticalAlign=bottom;endArrow=open;dashed=1;endSize=8;curved=0;rounded=0;" edge="1" parent="1">
          <mxGeometry relative="1" as="geometry">
            <mxPoint x="600" y="400" as="sourcePoint" />
            <mxPoint x="440" y="400" as="targetPoint" />
          </mxGeometry>
        </mxCell>
        <mxCell id="6UBvbnQ5x66d-xGpxlXS-34" value="return order status" style="text;html=1;align=center;verticalAlign=middle;resizable=0;points=[];autosize=1;strokeColor=none;fillColor=none;" vertex="1" parent="1">
          <mxGeometry x="450" y="368" width="120" height="30" as="geometry" />
        </mxCell>
        <mxCell id="6UBvbnQ5x66d-xGpxlXS-35" value="return order status" style="html=1;verticalAlign=bottom;endArrow=open;dashed=1;endSize=8;curved=0;rounded=0;" edge="1" parent="1" target="6UBvbnQ5x66d-xGpxlXS-5">
          <mxGeometry relative="1" as="geometry">
            <mxPoint x="410" y="430" as="sourcePoint" />
            <mxPoint x="330" y="430" as="targetPoint" />
          </mxGeometry>
        </mxCell>
      </root>
    </mxGraphModel>
  </diagram>
</mxfile>
